HIERARCHY
ROOT Hips
{
	OFFSET -14.64140 90.27770 -84.91600
	CHANNELS 6 Xposition Yposition Zposition Zrotation Xrotation Yrotation
	JOINT Spine
	{
		OFFSET 0.00000 13.20850 -1.60436
		CHANNELS 3 Zrotation Xrotation Yrotation
		JOINT Spine1
		{
			OFFSET 0.00000 8.61716 0.00000
			CHANNELS 3 Zrotation Xrotation Yrotation
			JOINT Spine2
			{
				OFFSET 0.00000 8.61717 0.00000
				CHANNELS 3 Zrotation Xrotation Yrotation
				JOINT Spine3
				{
					OFFSET 0.00000 8.61717 0.00000
					CHANNELS 3 Zrotation Xrotation Yrotation
					JOINT Neck
					{
						OFFSET 0.00000 11.07920 1.10792
						CHANNELS 3 Zrotation Xrotation Yrotation
						JOINT Neck1
						{
							OFFSET 0.00000 7.08032 0.00000
							CHANNELS 3 Zrotation Xrotation Yrotation
							JOINT Head
							{
								OFFSET 0.00000 7.08031 0.00000
								CHANNELS 3 Zrotation Xrotation Yrotation
								End site
								{
									OFFSET 0.00000 0.00000 0.00000
								}
							}
						}
					}
					JOINT RightShoulder
					{
						OFFSET -0.01000 7.91373 5.19711
						CHANNELS 3 Zrotation Xrotation Yrotation
						JOINT RightArm
						{
							OFFSET -18.41580 0.00000 0.00000
							CHANNELS 3 Zrotation Xrotation Yrotation
							JOINT RightForeArm
							{
								OFFSET -29.11090 0.00000 0.00000
								CHANNELS 3 Zrotation Xrotation Yrotation
								JOINT RightHand
								{
									OFFSET -24.65040 0.00000 0.00000
									CHANNELS 3 Zrotation Xrotation Yrotation
									JOINT RightHandThumb1
									{
										OFFSET -5.35114 -0.85590 3.97906
										CHANNELS 3 Zrotation Xrotation Yrotation
										JOINT RightHandThumb2
										{
											OFFSET -4.52789 0.00000 0.00000
											CHANNELS 3 Zrotation Xrotation Yrotation
											JOINT RightHandThumb3
											{
												OFFSET -2.46976 0.00000 0.00000
												CHANNELS 3 Zrotation Xrotation Yrotation
												End site
												{
													OFFSET 0.00000 0.00000 0.00000
												}
											}
										}
									}
									JOINT RightHandIndex1
									{
										OFFSET -14.26970 0.00000 2.88139
										CHANNELS 3 Zrotation Xrotation Yrotation
										JOINT RightHandIndex2
										{
											OFFSET -5.48836 0.00000 0.00000
											CHANNELS 3 Zrotation Xrotation Yrotation
											JOINT RightHandIndex3
											{
												OFFSET -3.01859 0.00000 0.00000
												CHANNELS 3 Zrotation Xrotation Yrotation
												End site
												{
													OFFSET 0.00000 0.00000 0.00000
												}
											}
										}
									}
									JOINT RightHandMiddle1
									{
										OFFSET -14.26970 0.00000 -0.09147
										CHANNELS 3 Zrotation Xrotation Yrotation
										JOINT RightHandMiddle2
										{
											OFFSET -6.17441 0.00000 0.00000
											CHANNELS 3 Zrotation Xrotation Yrotation
											JOINT RightHandMiddle3
											{
												OFFSET -3.56743 0.00000 0.00000
												CHANNELS 3 Zrotation Xrotation Yrotation
												End site
												{
													OFFSET 0.00000 0.00000 0.00000
												}
											}
										}
									}
									JOINT RightHandRing1
									{
										OFFSET -12.69180 0.00000 -3.06433
										CHANNELS 3 Zrotation Xrotation Yrotation
										JOINT RightHandRing2
										{
											OFFSET -5.62556 0.00000 0.00000
											CHANNELS 3 Zrotation Xrotation Yrotation
											JOINT RightHandRing3
											{
												OFFSET -3.56744 0.00000 0.00000
												CHANNELS 3 Zrotation Xrotation Yrotation
												End site
												{
													OFFSET 0.00000 0.00000 0.00000
												}
											}
										}
									}
									JOINT RightHandPinky1
									{
										OFFSET -11.11390 0.00000 -6.03719
										CHANNELS 3 Zrotation Xrotation Yrotation
										JOINT RightHandPinky2
										{
											OFFSET -4.52789 0.00000 0.00000
											CHANNELS 3 Zrotation Xrotation Yrotation
											JOINT RightHandPinky3
											{
												OFFSET -2.46976 0.00000 0.00000
												CHANNELS 3 Zrotation Xrotation Yrotation
												End site
												{
													OFFSET 0.00000 0.00000 0.00000
												}
											}
										}
									}
								}
							}
						}
					}
					JOINT LeftShoulder
					{
						OFFSET 0.01000 7.91373 5.19711
						CHANNELS 3 Zrotation Xrotation Yrotation
						JOINT LeftArm
						{
							OFFSET 18.41580 0.00000 0.00000
							CHANNELS 3 Zrotation Xrotation Yrotation
							JOINT LeftForeArm
							{
								OFFSET 29.11090 0.00000 0.00000
								CHANNELS 3 Zrotation Xrotation Yrotation
								JOINT LeftHand
								{
									OFFSET 24.65040 0.00000 0.00000
									CHANNELS 3 Zrotation Xrotation Yrotation
									JOINT LeftHandThumb1
									{
										OFFSET 5.35114 -0.85590 3.97906
										CHANNELS 3 Zrotation Xrotation Yrotation
										JOINT LeftHandThumb2
										{
											OFFSET 4.52789 0.00000 0.00000
											CHANNELS 3 Zrotation Xrotation Yrotation
											JOINT LeftHandThumb3
											{
												OFFSET 2.46977 0.00000 0.00000
												CHANNELS 3 Zrotation Xrotation Yrotation
												End site
												{
													OFFSET 0.00000 0.00000 0.00000
												}
											}
										}
									}
									JOINT LeftHandIndex1
									{
										OFFSET 14.26970 0.00000 2.88139
										CHANNELS 3 Zrotation Xrotation Yrotation
										JOINT LeftHandIndex2
										{
											OFFSET 5.48836 0.00000 0.00000
											CHANNELS 3 Zrotation Xrotation Yrotation
											JOINT LeftHandIndex3
											{
												OFFSET 3.01859 0.00000 0.00000
												CHANNELS 3 Zrotation Xrotation Yrotation
												End site
												{
													OFFSET 0.00000 0.00000 0.00000
												}
											}
										}
									}
									JOINT LeftHandMiddle1
									{
										OFFSET 14.26970 0.00000 -0.09147
										CHANNELS 3 Zrotation Xrotation Yrotation
										JOINT LeftHandMiddle2
										{
											OFFSET 6.17440 0.00000 0.00000
											CHANNELS 3 Zrotation Xrotation Yrotation
											JOINT LeftHandMiddle3
											{
												OFFSET 3.56744 0.00000 0.00000
												CHANNELS 3 Zrotation Xrotation Yrotation
												End site
												{
													OFFSET 0.00000 0.00000 0.00000
												}
											}
										}
									}
									JOINT LeftHandRing1
									{
										OFFSET 12.69180 0.00000 -3.06433
										CHANNELS 3 Zrotation Xrotation Yrotation
										JOINT LeftHandRing2
										{
											OFFSET 5.62556 0.00000 0.00000
											CHANNELS 3 Zrotation Xrotation Yrotation
											JOINT LeftHandRing3
											{
												OFFSET 3.56744 0.00000 0.00000
												CHANNELS 3 Zrotation Xrotation Yrotation
												End site
												{
													OFFSET 0.00000 0.00000 0.00000
												}
											}
										}
									}
									JOINT LeftHandPinky1
									{
										OFFSET 11.11390 0.00000 -6.03719
										CHANNELS 3 Zrotation Xrotation Yrotation
										JOINT LeftHandPinky2
										{
											OFFSET 4.52789 0.00000 0.00000
											CHANNELS 3 Zrotation Xrotation Yrotation
											JOINT LeftHandPinky3
											{
												OFFSET 2.46976 0.00000 0.00000
												CHANNELS 3 Zrotation Xrotation Yrotation
												End site
												{
													OFFSET 0.00000 0.00000 0.00000
												}
											}
										}
									}
								}
							}
						}
					}
					JOINT pCube4
					{
						OFFSET 0.00000 10.91090 1.10792
						CHANNELS 3 Zrotation Xrotation Yrotation
						End site
						{
							OFFSET 0.00000 0.00000 0.00000
						}
					}
				}
			}
		}
	}
	JOINT RightUpLeg
	{
		OFFSET -9.98441 0.00000 0.00000
		CHANNELS 3 Zrotation Xrotation Yrotation
		JOINT RightLeg
		{
			OFFSET 0.00000 -42.11790 0.00000
			CHANNELS 3 Zrotation Xrotation Yrotation
			JOINT RightFoot
			{
				OFFSET 0.00000 -45.00020 -0.00001
				CHANNELS 3 Zrotation Xrotation Yrotation
				JOINT RightForeFoot
				{
					OFFSET 0.00000 -3.74820 0.00000
					CHANNELS 3 Zrotation Xrotation Yrotation
					JOINT RightToeBase
					{
						OFFSET 0.00000 0.06325 14.43120
						CHANNELS 3 Zrotation Xrotation Yrotation
						End site
						{
							OFFSET 0.00000 0.00000 0.00000
						}
					}
				}
			}
		}
	}
	JOINT LeftUpLeg
	{
		OFFSET 9.98441 0.00000 0.00000
		CHANNELS 3 Zrotation Xrotation Yrotation
		JOINT LeftLeg
		{
			OFFSET 0.00000 -42.11800 0.00000
			CHANNELS 3 Zrotation Xrotation Yrotation
			JOINT LeftFoot
			{
				OFFSET 0.00000 -45.00070 0.00000
				CHANNELS 3 Zrotation Xrotation Yrotation
				JOINT LeftForeFoot
				{
					OFFSET 0.00000 -3.74824 0.00000
					CHANNELS 3 Zrotation Xrotation Yrotation
					JOINT LeftToeBase
					{
						OFFSET 0.00000 0.06325 14.43110
						CHANNELS 3 Zrotation Xrotation Yrotation
						End site
						{
							OFFSET 0.00000 0.00000 0.00000
						}
					}
				}
			}
		}
	}
}
MOTION
Frames: 4
Frame Time: 0.050000
-0.021384909156534678 0.0007025507373342625 -0.013100681799033717 -0.021064899114994262 0.0378719456964043 -0.04612101449236331 -3.128253117410709 6.571849281221088 -0.7247254372859879 -0.6666641183944871 3.17578032491008 0.36053091347104893 -0.8852803402869834 -0.16041360613398337 -0.6155751714687583 -0.3503851364783411 0.20898005672341619 -0.884313568994779 -0.05266797853296559 7.373497643305638 -0.651382738557539 -7.947486629448705e-05 -1.9915652628055762 -4.638270220300132 0.26618573626362163 -16.98134185780848 -0.3690160064310644 4.268122836492206 -0.13744727593598488 -11.295984419097675 71.01614931309443 9.064904119058038 5.770293097253293 18.909013350494188 13.80328057548322 67.1299401948799 26.033064983721417 0.18148083289376826 -8.735162896125555 4.4851447653765435 -0.10720699416492496 -1.5692543269602437 0.002417895742358096 0.02062240792215633 -56.260003208895455 0.040539011593175696 -0.028885025996114075 -56.24514178274637 -38.776936116851935 -0.004875099289104252 0.03384829258120948 -0.044357353645651104 -0.01364422141656918 -0.024782116761633888 -0.039352264130722854 0.025872338743040218 0.00851372322144451 -36.65415743963485 0.03882283872318835 0.002401046518430701 0.02930088866326213 -0.0205796856714026 -0.017155844309529558 0.02141439597114649 -0.0050328900290882075 0.018199621014046242 -19.766410112846998 -0.0157624290230387 -0.005135665949781961 -0.014903559678826119 0.04909533365263453 -0.009648964387041478 0.02052196040023439 -0.03187692014271988 0.019563137520850198 24.051936494185505 -0.014710722977616563 0.012494169293985297 28.822425952933504 0.03526343507701318 0.007191406743774743 28.83993506257763 -0.028177573056203806 0.0021954617834420674 -3.254876634635386 0.00016545792267245226 10.091565414744604 -68.83607626833502 18.608884019210176 -7.80835497096519 -9.470279183524312 9.656767690554274 -49.100559933296246 -17.80948302950852 5.686433762660391 -1.5113115238280184 -0.42891934511015134 0.05322687471489723 -8.122860853291641 0.034206269325193446 -0.014308590580597674 44.570238743897704 0.046685048045796144 -0.01662657898676001 44.56924558619497 12.484054416170999 0.01216060395057658 -0.028828701002203014 -0.04643325059366262 0.0055808600489446305 0.0011518429413517582 0.005737170514438555 0.0008999481727468241 -0.013933457300680685 11.071591653910003 -0.0400162755639354 0.015347989458855677 0.0052865102147029875 0.020948466533016498 0.01985660294526936 -0.002540197989192084 0.02996504096103615 0.004244632850116637 4.795084135063603 -0.04788902518991036 0.006680802670132028 0.007047620214001559 0.00039729577899419894 -0.009815773689386032 -0.017054500997243646 0.008929981191613905 0.013054536237821247 -5.618367615717053 0.03794366936209472 -0.020094463377164442 -6.714411664532067 -0.045605833064752375 0.019771978046577956 -6.731843715016879 -0.04111982924511335 -0.02676560979061744 0.001880759929124277 0.01617282738491394 0.016001090033485953 8.062395752361667 3.50089990503924 -19.207269354765966 -0.025550762907352843 10.373636139098823 -0.033568037280660365 -5.660677237102785 -15.653710707121416 3.1820197342882675 0.004821829155011441 -0.04799821733012514 -0.008402124112088072 -0.04474975927192334 4.655072058003721 -0.04425736788070659 12.493965250190053 -8.201243957117482 6.852765745898991 -0.005309615647546905 46.344439575470446 0.040797592891602896 -4.283808772853561 -14.714316282914346 -3.8666479586657485 -0.006695745468411659 0.007088050170777548 -0.03763218621860199 -0.007517820793730366 -10.712988463921652 -0.04373494366846733 
-0.03610458442171286 -0.028055571298214108 -0.009629445661826923 -0.04291149543515063 -0.00950306873918361 0.043571391812001314 -2.1643997312331584 5.714098612586844 -0.8350376403341984 -0.6668564087526409 3.335691331774537 0.37897136859820263 -0.8392316704836383 -0.3422677256746145 -0.43169219395617014 -0.3295752697730342 0.17416941370820527 -0.7479705932726739 -0.050867833502698606 8.364316445285848 -0.7237462330269507 0.03304681316563952 -1.9806653349438705 -4.56583219594537 0.4500643898979527 -17.297376781185065 -0.34437795730802734 2.1638943292307604 0.43935950063201396 -11.822785635607424 72.6895932317919 10.204152151265875 8.402735807387524 29.90273288178939 11.395264775351322 75.98584084923209 23.423490193984183 0.0831344644830995 -9.195124463403252 4.517515346820323 -0.1531794853028414 -1.58757164270862 0.004748793176810022 0.03207356227587997 -56.18539307597947 0.012364281830480616 -0.01456111656852888 -56.19399613777698 -38.790209894390244 -0.03848560217369311 0.04233888562336839 0.02310989981668449 0.015178617193571687 -0.018348542159797813 -0.0058194662482517045 0.0435196760314757 0.014940841930125879 -36.68834542686056 -0.013114522416775394 0.027723684105418075 -0.01985275402593693 -0.01666788202547456 -0.016289744381966686 0.033331214132753265 -0.03593102539723707 -0.02580760141062899 -19.72731965918171 0.01606718604375841 0.00649792766976208 0.02708452637890502 -0.037932010799635485 -0.023512293838167417 0.017366977478985336 -0.02126159481889796 -0.016864315151056894 24.02089582936273 -0.01791914166368431 0.0023751022377676897 28.84675557715146 0.018367352491352133 0.046245039691347314 28.877803595534203 0.003440858945154786 -0.016794528446758175 -1.1802971848607335 0.370008472466465 10.486782182335302 -70.21368131319154 19.802803904247167 -8.98197350567944 -15.047157915062938 9.37143389306903 -52.84757715533971 -16.391077567276266 4.506242462186238 -0.6316839731344082 -0.5055610021394537 0.049373579003431506 -8.160219815850411 0.047220446375331626 0.0035707305068014322 44.57312956643542 -0.021166498119129004 0.016779413755247583 44.53148567225995 12.450590802563855 0.005020653349705073 0.01505504163839334 -0.008331311795275055 0.006704620392835303 -0.024489157107447947 -0.025913026726953906 -0.005101266434092173 -0.016973953071105333 11.12563667902246 0.006807184125215449 -0.007595989818658738 -0.014093017419165361 -0.02148878838870238 -0.015008970191362138 -0.03282508084634078 -0.010602629806990553 0.027222897215417482 4.789404390831894 0.018377176026748984 -0.009345220335310114 0.013507863632196079 -0.03556666498394167 -0.0408415087021035 0.020258153905829093 0.008849211327239034 0.017224012659982867 -5.636062615650122 0.03647369431451568 -0.012686322339737979 -6.689229055379201 0.03177921654706331 0.02968107258348178 -6.712478780621362 0.007205771196174918 -0.006996240404765981 0.047293260789103966 -0.04068535653124898 0.00794356361796519 8.02999345900611 3.5070467612102134 -19.26302433989952 0.03833534411833103 10.355466349774614 -0.0007886560045392843 -5.624589487096167 -15.664198014046738 3.1623438749138657 0.014528568957087002 -0.028110314665757512 0.03126661405666629 0.013967699806639707 4.675700076486772 -0.02583900712004 12.411418719498215 -8.28242560362976 6.87656806609583 -0.021857987095236793 46.38455610808483 -0.01820990478400412 -4.287966520530073 -14.791399431734353 -3.860703321572168 -0.024039947559629956 -0.041379305776552446 -0.03859037737085539 -0.039596467229953185 -10.74429559553106 -0.043483202205873234 
-0.029557583007303496 0.016337721007334365 0.0016592826835254801 -0.015731147239536888 0.019017086047134254 0.007511864874491202 -1.3468895271015124 4.9076831975537 -1.005621822777336 -0.7057213469066539 3.3710866566252875 0.3406445546569724 -0.8731631736183519 -0.5914105261601218 -0.23110600199975737 -0.30126292858740494 0.11855430811268111 -0.684649103659781 -0.0281581837380191 9.170754988642749 -0.8624516381386086 0.11012083168408686 -1.739797055454391 -4.4488853388808325 0.493778234959405 -17.345127295545804 -0.32648257611513715 0.07123188416982768 0.9751216037374346 -12.188195841140308 74.42682952082761 11.028144491292307 10.60582443123316 38.18197913157801 8.17713908648356 82.6408850664629 21.06908601948361 -0.03426208675094129 -9.126690713032756 4.53631849547297 -0.1305634129750784 -1.624128650903652 0.0018342619850964343 0.04429909702818419 -56.26645635020926 -0.003207669326529233 -0.035561246095398465 -56.24499219668932 -38.79305346010747 -0.04186361962025483 0.044745939070094165 0.004970692850957578 0.03039804703099449 -0.006988172741758894 0.01398829739251882 -0.01899158268365324 -0.0194991805175855 -36.666007998748164 -0.03185043669406826 0.03409854740127367 -0.0034644836505013303 0.02455051264208993 -0.03978514813051443 -0.04395975346858107 -0.04072721185751361 -0.045725994018742805 -19.79091032111663 -0.0022564452256714196 -0.0009091003000870664 0.029806041204142056 0.013646167816031927 0.04030789833107346 0.007225213283133104 0.015791765396248516 -0.02490277896756719 24.09608250167883 -0.016408384921878075 0.02485192398002313 28.82929029467521 0.01905138405685987 -0.04390647078337335 28.88645157191397 0.03506580157971316 0.03821968293681248 0.9097946182766066 0.7692561921017902 10.78845789681529 -71.42426371897069 20.737402766630613 -10.104354712719935 -19.644061349065964 8.255233561594265 -56.08896656401341 -15.151271667168734 3.026565501708438 0.34987520519885473 -0.45691684693789625 0.11465870976182047 -8.0798985128354 -0.02096406170389271 -0.01594949921363792 44.522863782857726 0.017314330199500412 -0.046724508885922444 44.56295331711083 12.503718140717837 0.04138919678538093 -0.024235022733009242 0.032127668689124075 0.028374526913752796 -0.022574430707228508 -0.01699944911281817 -0.023833002138755742 -0.020953624820688743 11.14433836302281 -0.01240753424121051 -0.032174438868922545 0.01871492640755805 -0.003286862385510687 -0.028716009014627595 -0.031256498358887594 0.0013945466453673264 -0.04383410644593752 4.778024419430076 0.016161420577954066 0.016209845672300324 0.04159801588175061 0.014974038031437695 -0.021658998703117226 0.022802129319821896 0.029062119407803032 -0.016488757043499343 -5.618166031599568 0.03286389470558317 -0.03853299344301275 -6.718056277175096 -0.007228779661809967 -0.04512155052805263 -6.673072877897 -0.04750680921809559 -0.017933483954509 0.04551349826556607 0.024731586348902636 -0.024163919429408202 8.04620493928389 3.465860006153892 -19.206553877362452 0.01989082902471546 10.347744230911607 -0.028705278321773702 -5.619531232591795 -15.680294147362074 3.169026308925254 0.043365526324813046 0.0036856154157793473 0.027398531328278075 0.01647695979649682 4.683715377707601 0.006561644396467047 12.429686138110194 -8.218737302351105 6.853434228028433 -0.003659509130498547 46.349813683834334 0.01954235565770377 -4.317382900350796 -14.728905998705054 -3.822987768738652 0.009853691867659957 0.034273744310016396 0.008292017945551905 0.0035861278626260055 -10.762010971667836 0.016367960666500533 
-0.04308875492883377 -0.012478164138804641 -0.014392256560409359 0.04601771963939545 0.004620686941974604 0.0020957729593300187 -0.5126593000722963 4.2655562252345325 -1.11615128244321 -0.7272424497813805 3.383961323828812 0.37030905625248384 -0.8180236003549569 -0.7609298066377777 -0.10540628329633925 -0.2557436751193925 0.1235769398675568 -0.6661586132117828 -0.0019216292164628331 9.675640122073068 -0.8871002063038558 0.0748620100268871 -1.5186412836643355 -4.406847820594363 0.5241168009336662 -17.337243584948975 -0.37880836393124895 -1.6796293727889007 1.446837394482107 -12.701513542004175 76.05918418967936 11.045534470822833 12.116855945928142 42.88029100576166 5.698141863103013 85.98013780859083 19.30443106272886 -0.15409526058384743 -8.763649778637092 4.513142017112623 -0.11200390108596017 -1.6165632233385079 0.029314137184156635 0.03360095525253608 -56.25922328424981 0.0209046609166005 -0.0058801274176026 -56.24092757386339 -38.75881019610079 -0.03058511563768587 0.02393359394948724 -0.025477269399053096 0.018141102828973667 0.009086746995829682 0.012380929383537612 -0.031096686951216874 0.0014991721158785247 -36.69500973350451 -0.036167080387806964 -0.015242676094175688 0.015883490311647597 0.011756771880803037 -0.02053661292801381 -0.023631000625603166 0.02834119734305335 -0.01895781059732443 -19.761898048239328 -0.005910738170985019 -0.024111459406612048 -0.01877856481555089 -0.034107042357876774 -0.030113052680803828 0.00835978545776862 -0.01565622052168865 -0.023640136553451742 24.079119289319042 -0.007185709603719896 -0.041503023621532284 28.875968820833855 0.041562569824157715 -0.029151512990244988 28.821328726424888 0.04193798378724608 0.01846416484388782 2.4898452959359294 1.0404426481109113 11.164441523024372 -72.45828898538895 21.085225175560346 -10.678514439132059 -21.540159089149427 6.38858639567005 -57.456641004068764 -14.728247135175078 1.5613643102762227 1.1074709950652664 -0.4394140399139592 0.06719164465549443 -8.130231207397673 0.02234210612763786 -0.012478903551608715 44.569313949773516 0.04020089583395175 -0.0357315555793718 44.55574051635256 12.432027179639526 -0.02873708321065062 0.03999114003774754 0.036088950380884326 0.029822583365887716 0.0056914443045390384 -0.007646658625425211 0.0360615693390647 0.04985443117453693 11.105647902563536 -0.04080549718853567 -0.04678285686777104 0.03840625407477347 0.01350480047968651 -0.02865612750446778 -0.029807175584945857 0.01542206514722355 0.015772543923458546 4.760567004341485 -0.040029294003008746 -0.003789330304347326 0.03281944781588947 -0.03714922000402696 -0.012842563067040454 0.011045616092424817 0.018185176346088176 -0.032080209198293054 -5.596452559137231 -0.0445201846615567 -0.0453652531057025 -6.691377129888984 0.031946751770254106 0.008707812416597644 -6.709418846189408 -0.04649415866311542 0.032845189351753866 0.021562832393695643 -0.02825370197926813 -0.0014914358812351581 8.058203554873511 3.527127111598695 -19.223177253298623 0.00012746489249232208 10.364409809739856 0.013163971531662998 -5.582422422772534 -15.662343828298471 3.1590743124889515 0.045637761811309394 0.004599194675650749 0.02567462871103888 -0.023397695466419337 4.664202764746542 0.03476603082046655 12.498450196302379 -8.242148545786259 6.86863165617131 -0.029679325330129267 46.352887890652866 -0.007894830093243634 -4.3058290563638515 -14.789322667229353 -3.8491950691204573 -0.01912117827133068 0.030306055371147955 0.021872075894935145 -0.018761843951021494 -10.717894685900792 -0.011540407663348384 
